<svg xmlns="http://www.w3.org/2000/svg" width="345" height="306.973" viewBox="0 0 345 306.973">
  <g id="Group_3779" data-name="Group 3779" transform="translate(-23.444 -44.078)">
    <rect id="Rectangle_5849" data-name="Rectangle 5849" width="43.765" height="43.765" rx="9.95" transform="translate(47.722 181.919)" fill="#96fffa" opacity="0.58"/>
    <rect id="Rectangle_5850" data-name="Rectangle 5850" width="40.808" height="41.983" rx="9.411" transform="translate(76.159 126.619)" fill="#fcddfc"/>
    <rect id="Rectangle_5851" data-name="Rectangle 5851" width="20.404" height="20.992" rx="4.705" transform="translate(58.395 75.65)" fill="#fcddfc"/>
    <rect id="Rectangle_5852" data-name="Rectangle 5852" width="20.404" height="20.992" rx="4.705" transform="translate(187.765 183.928)" fill="#fcddfc"/>
    <rect id="Rectangle_5853" data-name="Rectangle 5853" width="20.404" height="20.992" rx="4.705" transform="translate(206.363 86.146)" fill="#fcddfc"/>
    <rect id="Rectangle_5854" data-name="Rectangle 5854" width="20.404" height="20.992" rx="4.705" transform="translate(322.249 83.548)" fill="#fcddfc"/>
    <rect id="Rectangle_5855" data-name="Rectangle 5855" width="13.167" height="13.547" rx="3.037" transform="translate(34.176 53.464)" fill="#fcddfc"/>
    <path id="Rectangle_5856" data-name="Rectangle 5856" d="M3.037,0h7.094a3.037,3.037,0,0,1,3.037,3.037V10.51a3.037,3.037,0,0,1-3.037,3.037H3.036A3.036,3.036,0,0,1,0,10.51V3.037A3.037,3.037,0,0,1,3.037,0Z" transform="translate(151.996 60.237)" fill="#fcddfc"/>
    <path id="Rectangle_5857" data-name="Rectangle 5857" d="M3.036,0h7.094a3.036,3.036,0,0,1,3.036,3.036V10.51a3.037,3.037,0,0,1-3.037,3.037H3.037A3.037,3.037,0,0,1,0,10.51V3.036A3.036,3.036,0,0,1,3.036,0Z" transform="translate(57.361 257.033)" fill="#fcddfc"/>
    <path id="Rectangle_5858" data-name="Rectangle 5858" d="M3.037,0h7.094a3.036,3.036,0,0,1,3.036,3.036V10.51a3.036,3.036,0,0,1-3.036,3.036H3.037A3.037,3.037,0,0,1,0,10.51V3.037A3.037,3.037,0,0,1,3.037,0Z" transform="translate(321.884 316.649)" fill="#fcddfc"/>
    <path id="Rectangle_5859" data-name="Rectangle 5859" d="M3.036,0h7.094a3.036,3.036,0,0,1,3.036,3.036V10.51a3.037,3.037,0,0,1-3.037,3.037H3.037A3.037,3.037,0,0,1,0,10.51V3.036A3.036,3.036,0,0,1,3.036,0Z" transform="translate(214.927 284.406)" fill="#fcddfc"/>
    <rect id="Rectangle_5860" data-name="Rectangle 5860" width="10.757" height="11.067" rx="2.481" transform="translate(321.898 124.187)" fill="#fcddfc"/>
    <rect id="Rectangle_5861" data-name="Rectangle 5861" width="10.757" height="11.067" rx="2.481" transform="translate(272.928 77.37)" fill="#96fffa" opacity="0.58"/>
    <rect id="Rectangle_5862" data-name="Rectangle 5862" width="10.757" height="11.067" rx="2.481" transform="translate(70.78 58.456)" fill="#96fffa" opacity="0.58"/>
    <rect id="Rectangle_5863" data-name="Rectangle 5863" width="10.757" height="11.067" rx="2.481" transform="translate(28.797 86.146)" fill="#96fffa" opacity="0.58"/>
    <rect id="Rectangle_5864" data-name="Rectangle 5864" width="10.757" height="11.067" rx="2.481" transform="translate(165.599 157.917)" fill="#96fffa" opacity="0.58"/>
    <rect id="Rectangle_5865" data-name="Rectangle 5865" width="10.757" height="11.067" rx="2.481" transform="translate(334.995 130.711)" fill="#96fffa" opacity="0.58"/>
    <path id="Rectangle_5866" data-name="Rectangle 5866" d="M3.036,0h7.094a3.037,3.037,0,0,1,3.037,3.037V10.51a3.037,3.037,0,0,1-3.037,3.037H3.037A3.037,3.037,0,0,1,0,10.51V3.036A3.036,3.036,0,0,1,3.036,0Z" transform="translate(283.711 89.868)" fill="#fcddfc"/>
    <path id="Rectangle_5867" data-name="Rectangle 5867" d="M3.037,0h7.094a3.037,3.037,0,0,1,3.037,3.037V10.51a3.036,3.036,0,0,1-3.036,3.036H3.037A3.037,3.037,0,0,1,0,10.51V3.037A3.037,3.037,0,0,1,3.037,0Z" transform="translate(151.625 102.017)" fill="#fcddfc"/>
    <path id="Rectangle_5868" data-name="Rectangle 5868" d="M3.037,0h7.094a3.036,3.036,0,0,1,3.036,3.036V10.51a3.036,3.036,0,0,1-3.036,3.036H3.037A3.037,3.037,0,0,1,0,10.51V3.037A3.037,3.037,0,0,1,3.037,0Z" transform="translate(173.192 137.432)" fill="#fcddfc"/>
    <path id="Rectangle_5869" data-name="Rectangle 5869" d="M3.036,0h7.094a3.036,3.036,0,0,1,3.036,3.036V10.51a3.037,3.037,0,0,1-3.037,3.037H3.037A3.037,3.037,0,0,1,0,10.51V3.036A3.036,3.036,0,0,1,3.036,0Z" transform="translate(344.56 150.979)" fill="#fcddfc"/>
    <circle id="Ellipse_889" data-name="Ellipse 889" cx="71.32" cy="71.32" r="71.32" transform="translate(208.503 163.655)" fill="#96fffa" opacity="0.58"/>
    <line id="Line_402" data-name="Line 402" y1="0.062" transform="translate(250.3 90.387)" fill="none"/>
    <g id="Group_3761" data-name="Group 3761" transform="translate(75.725 215.536)">
      <path id="Path_27197" data-name="Path 27197" d="M108.476,308.333c-8.4-8.763-24.839-22.77-17.179-36.515,9.4-16.861,41.629-11.794,56.5-7.507,13.53,3.9,26.579,11.869,23.559,27.963-1.265,6.742-6.833,11.295-8.605,17.607-3.017-1.087-7.257-.244-10.574-.417,1.154-4.444.376-9.431-3.1-12.637-5.2-4.8-19.66-11.589-26.971-9.077-9.958,3.421,2.917,19.4,6.168,23.688-4.355-.79-8.566.3-13.055.07" transform="translate(-89.315 -260.107)" fill="#ccc2fe"/>
      <g id="Group_3760" data-name="Group 3760" transform="translate(4.649 48.27)">
        <path id="Path_27198" data-name="Path 27198" d="M98.575,327.728h83.8a3.412,3.412,0,0,0,3.4-3.4h0a3.412,3.412,0,0,0-3.4-3.4h-83.8a3.412,3.412,0,0,0-3.4,3.4h0A3.412,3.412,0,0,0,98.575,327.728Z" transform="translate(-95.173 -320.924)" fill="#ccc2fe"/>
        <path id="Path_27199" data-name="Path 27199" d="M188.7,400.632h0a1.062,1.062,0,0,0,1.059-1.059v-73.3a1.061,1.061,0,0,0-1.059-1.058h0a1.061,1.061,0,0,0-1.058,1.058v73.3A1.061,1.061,0,0,0,188.7,400.632Z" transform="translate(-114.251 -321.808)" fill="#ccc2fe"/>
        <path id="Path_27200" data-name="Path 27200" d="M132.093,400.632h0a1.061,1.061,0,0,0,1.058-1.059v-73.3a1.061,1.061,0,0,0-1.058-1.058h0a1.061,1.061,0,0,0-1.059,1.058v73.3A1.062,1.062,0,0,0,132.093,400.632Z" transform="translate(-102.572 -321.808)" fill="#ccc2fe"/>
        <path id="Path_27201" data-name="Path 27201" d="M157.7,402.991h0a1.061,1.061,0,0,0,1.059-1.058v-73.3a1.062,1.062,0,0,0-1.059-1.059h0a1.061,1.061,0,0,0-1.058,1.059v73.3A1.061,1.061,0,0,0,157.7,402.991Z" transform="translate(-107.854 -322.295)" fill="#ccc2fe"/>
        <path id="Path_27202" data-name="Path 27202" d="M105.222,400.632h0a1.061,1.061,0,0,0,1.058-1.059v-73.3a1.061,1.061,0,0,0-1.058-1.058h0a1.061,1.061,0,0,0-1.058,1.058v73.3A1.061,1.061,0,0,0,105.222,400.632Z" transform="translate(-97.028 -321.808)" fill="#ccc2fe"/>
      </g>
    </g>
    <path id="Path_27203" data-name="Path 27203" d="M311.269,293.449l.861,1.574,1.574.861-1.574.861-.861,1.574-.861-1.574-1.574-.861,1.574-.861Z" transform="translate(-58.881 -51.449)" fill="#eef4f2"/>
    <g id="Group_3763" data-name="Group 3763" transform="translate(178.385 214.597)">
      <path id="Path_27204" data-name="Path 27204" d="M225.815,312.565,218.662,399.9l12.7-83.732h87.305L336.525,399.9l-12.3-82.542,5.556-.4L352,399.9l-21.278-87.331Z" transform="translate(-218.662 -269.99)" fill="#ccc2fe" stroke="#ccc2fe" stroke-linecap="round" stroke-linejoin="round" stroke-width="2"/>
      <path id="Path_27205" data-name="Path 27205" d="M237.912,318.6l12.7,82.542L242.675,318.6Z" transform="translate(-222.634 -271.235)" fill="#ccc2fe" stroke="#ccc2fe" stroke-linecap="round" stroke-linejoin="round" stroke-width="2"/>
      <path id="Path_27206" data-name="Path 27206" d="M330.724,311.764H221.189c-1.39,0-2.527-.693-2.527-1.54h0c0-.847,1.137-1.54,2.527-1.54H330.724c1.39,0,2.526.693,2.526,1.54h0C333.25,311.072,332.114,311.764,330.724,311.764Z" transform="translate(-218.662 -269.19)" fill="#8b77e8"/>
      <g id="Group_3762" data-name="Group 3762" transform="translate(34.827)">
        <path id="Path_27207" data-name="Path 27207" d="M286.975,308.463H264.912a2.377,2.377,0,0,1-2.37-2.369h0a2.377,2.377,0,0,1,2.37-2.369h22.063a2.377,2.377,0,0,1,2.37,2.369h0A2.377,2.377,0,0,1,286.975,308.463Z" transform="translate(-262.542 -268.166)" fill="#b3a4f5"/>
        <rect id="Rectangle_5870" data-name="Rectangle 5870" width="53.142" height="39.959" rx="2.757" transform="translate(21.033)" fill="#ccc2fe"/>
        <path id="Path_27208" data-name="Path 27208" d="M331.089,283.356a5.31,5.31,0,1,1-5.31-5.31A5.31,5.31,0,0,1,331.089,283.356Z" transform="translate(-274.493 -262.868)" fill="#eef4f2"/>
      </g>
    </g>
    <rect id="Rectangle_5871" data-name="Rectangle 5871" width="25.019" height="47.621" rx="12" transform="translate(131.091 219.35)" fill="#745cd4"/>
    <g id="Group_3765" data-name="Group 3765" transform="translate(52.724 133.98)">
      <path id="Path_27209" data-name="Path 27209" d="M141.206,228.318c-1.072-1.494-2.168-2.989-3.236-4.525-3.688-5.3-9.376-12.747-8.04-19.644a10.533,10.533,0,0,1,1.685-.721q.286-.1.614-.2c.007,0,.007-.007.014-.007.931-.289,2.045-.6,3.222-.875a33.527,33.527,0,0,1,6.663-1.029,11.912,11.912,0,0,0,2.46-.659,50.227,50.227,0,0,0,4.726-1.808,22.332,22.332,0,0,0,5.588-4.088c3.787-3.8,5.331-8.113,5.368-10.115a34.348,34.348,0,0,1,.521-4.776l11.468.2c-.014,1.12-.06,2.141-.06,2.906.009,4.563,2.483,8.565,5.737,11.793a37.989,37.989,0,0,0,12.24,7.9c.9.064,2.074.169,3.355.317,1.317.141,2.752.334,4.122.56.553.086,1.091.179,1.609.286.259.046.51.1.755.152h.014c.125.03.244.053.363.083.21.045.419.1.614.15a.2.2,0,0,1,.07.015c.224.06.433.119.636.178a2.42,2.42,0,0,1,.293.089c.2.06.376.125.544.183a8.09,8.09,0,0,1,3.632,2.472.216.216,0,0,1,.041.049,6.209,6.209,0,0,1,1.125,2.537c.514,2.6.143,5.685.355,8.729.128,1.873-8.463,5.949-12.431,8.111a15.918,15.918,0,0,0-1.687,1.014c-1.529,1.156-3.032,2.387-4.459,3.7-.343.307-.685.628-1.014.949a31.278,31.278,0,0,0-8.535,13.05c-.083.276-.172.581-.248.914-.03.111-.053.221-.083.339s-.053.229-.076.347c-.053.236-.107.485-.154.741-.378,1.913-.694,4.293-.957,6.772-.043.465-.094.944-.137,1.417l-24.3-.432c-.006-.452-.019-.9-.025-1.349-.036-1.086-.081-2.151-.153-3.175-.038-.641-.09-1.26-.156-1.867-.017-.223-.04-.439-.072-.655-.043-.356-.086-.7-.136-1.039-.031-.223-.069-.446-.107-.663s-.076-.425-.121-.635-.084-.412-.129-.614-.091-.391-.144-.58a29.178,29.178,0,0,0-6.058-11.117A49.847,49.847,0,0,0,141.206,228.318Z" transform="translate(-74.652 -161.997)" fill="#eae9c5"/>
      <path id="Path_27210" data-name="Path 27210" d="M126.8,208.548a5.661,5.661,0,0,1,4.449-3.052c3.476-.592,7.027-.932,10.453-1.675.587-.121,1.162-.263,1.737-.416q1.186-.308,2.341-.719a25.242,25.242,0,0,0,11.035-7.844c.025-.034.048-.07.074-.1l18.874.334c.028.036.053.071.081.106a24.713,24.713,0,0,0,2.488,2.672c.47.429.947.852,1.437,1.251.962.8,1.964,1.537,2.968,2.215.079.045.152.1.225.148q.61.4,1.218.776c.113.065.22.136.333.2.406.246.806.479,1.206.7.073.04.147.085.22.124.466.26.933.506,1.387.735.079.039.146.078.22.11a.006.006,0,0,0,.006.006c.367.176.721.352,1.074.51a.232.232,0,0,0,.06.026c.106.059.221.1.327.157.3.131.594.262.875.38.12.046.233.1.347.144.308.125.608.243.9.348a1.334,1.334,0,0,0,.416.09c.927.067,2.083.169,3.345.3,1.4.144,2.921.335,4.37.562.59.092,1.16.19,1.71.288.275.048.544.1.818.159.134.028.255.048.382.083.221.041.449.1.657.15a.289.289,0,0,1,.073.013c.235.061.456.121.67.182a1.945,1.945,0,0,1,.315.087c.207.06.4.127.575.187a8.666,8.666,0,0,1,3.858,2.47.475.475,0,0,0,.046.051c.125.16.237.325.348.49.04.057.072.121.1.178a4.119,4.119,0,0,1,.209.375c.033.07.065.133.1.2.064.146.122.291.18.437a6.721,6.721,0,0,1,.253.866c.552,2.6.16,5.685.388,8.726a.707.707,0,0,1-.032.232c-.007.025-.014.044-.021.063a.8.8,0,0,1-.1.218.279.279,0,0,0-.021.044,2.374,2.374,0,0,1-.214.285l-.021.019c-1.629,1.875-7.8,4.758-11.653,6.676-.1.055-.2.1-.306.152-.082.043-.156.079-.231.115-.2.1-.394.2-.578.3a16.232,16.232,0,0,0-1.795,1.011c-1.622,1.153-3.212,2.383-4.722,3.688-.362.308-.731.628-1.074.949-4.05,3.706-7.411,8.009-9.042,13.04-.086.275-.186.582-.266.914-.029.113-.058.225-.087.337s-.058.232-.08.351c-.059.232-.117.482-.162.739-.4,1.917-.737,4.293-1.01,6.772-.042.471-.1.947-.147,1.418-.156,1.556-.291,3.119-.406,4.6-.2,2.555-.344,4.878-.428,6.549.016.221.025.44.021.667l-.009.471c-.1,5.285-4.8,9.527-10.451,9.427l-5.838-.1c-4.857-.086-8.771-3.871-8.689-8.414,0,0,.017-.943.01-.943-.025-.875-.034-1.849-.028-2.918.006-1.44.027-3.023.044-4.664.017-1.672.028-3.413-.009-5.13-.012-.453-.024-.906-.029-1.352-.04-1.082-.089-2.151-.164-3.171q-.064-.963-.168-1.87c-.023-.221-.046-.441-.075-.656-.048-.352-.1-.7-.15-1.04-.029-.221-.072-.448-.116-.662s-.079-.423-.129-.637-.087-.41-.137-.612-.094-.391-.151-.581c-1.548-5.22-5.3-9.153-9.342-12.87A63.867,63.867,0,0,1,131.945,223.1C129.686,219.638,124.882,212.568,126.8,208.548Z" transform="translate(-73.956 -165.064)" fill="#eae9c5"/>
      <path id="Path_27211" data-name="Path 27211" d="M157.972,264.1c.037.25.074.508.1.761.056.46.1.928.152,1.4.03.289.054.587.077.884q.107,1.225.171,2.526c.077,1.377.125,2.822.167,4.283,0,.6.017,1.214.029,1.826.037,2.318.025,4.67.009,6.927-.017,2.216-.039,4.354-.044,6.3-.006,1.443,0,2.759.029,3.94.006,0-.011,1.273-.011,1.273-.083,6.136,3.9,11.247,8.834,11.364l5.935.14c5.744.135,10.527-5.593,10.625-12.731l.009-.636c0-.306-.006-.6-.022-.9.086-2.256.231-5.394.435-8.844.116-2,.254-4.112.413-6.214.049-.635.106-1.279.149-1.915.278-3.347.622-6.556,1.027-9.144.046-.348.1-.686.164-1,.012-.083.027-.163.042-.244Z" transform="translate(-80.479 -179.374)" fill="#745cd4"/>
      <path id="Path_27212" data-name="Path 27212" d="M161.354,194.939a16.757,16.757,0,0,0,23.21.012c-3.278-3.259-5.772-7.3-5.78-11.9,0-.772.047-1.8.06-2.933l-11.555-.2a34.724,34.724,0,0,0-.525,4.82C166.726,186.752,165.17,191.1,161.354,194.939Z" transform="translate(-81.177 -162.005)" fill="#b3a4f5"/>
      <path id="Path_27213" data-name="Path 27213" d="M206.268,226.02,220.957,259a10.406,10.406,0,0,0,13.643,5.24,10.249,10.249,0,0,0,5.286-13.525L225.2,217.734a10.329,10.329,0,0,0-7.326-5.873l-.065-.013a10.361,10.361,0,0,0-5.265.271l-.013.006c-.326.107-.652.229-.974.37a10.263,10.263,0,0,0-5.456,5.682,10.231,10.231,0,0,0,.171,7.843Z" transform="translate(-90.262 -168.549)" fill="#eae9c5"/>
      <path id="Path_27214" data-name="Path 27214" d="M222.749,256.464a11.049,11.049,0,0,1,14.675,5.145,10.87,10.87,0,0,1-5.191,14.548,11.021,11.021,0,0,1-4.794,1.054l.01.04-34.4,4.968-2.6-5.4,30.122-18.986A11.005,11.005,0,0,1,222.749,256.464Z" transform="translate(-87.18 -177.579)" fill="#eae9c5"/>
      <path id="Path_27215" data-name="Path 27215" d="M199.827,276.575a6.688,6.688,0,0,1,1.648,6.457,17.986,17.986,0,0,1-.648,2.3l-7.774,1.123-2.6-5.4,8.159-5.143C199.026,276.119,199.431,276.343,199.827,276.575Z" transform="translate(-87.18 -181.811)" fill="#eae9c5"/>
      <path id="Path_27216" data-name="Path 27216" d="M186.657,282l1.156,4.651L174.4,291.572l-8.614-1.388-.645-3.395,8.7-.9,6.492-3.27-3.936-.618-5.511,1.361-.806-1.7,8.046-2.375Z" transform="translate(-81.957 -182.509)" fill="#ccc2fe"/>
      <path id="Path_27217" data-name="Path 27217" d="M118.7,210.842,86.918,228.358A10.235,10.235,0,0,0,82.9,242.306a10.423,10.423,0,0,0,14.07,3.981l31.785-17.517a10.255,10.255,0,0,0,5.23-7.769c0-.021,0-.044.006-.066a10.089,10.089,0,0,0-.753-5.173l-.006-.012c-.137-.313-.29-.623-.46-.928a10.436,10.436,0,0,0-14.07-3.982Z" transform="translate(-64.723 -168.122)" fill="#eae9c5"/>
      <path id="Path_27218" data-name="Path 27218" d="M96.067,230.172A10.859,10.859,0,0,1,92.24,245.13a11.06,11.06,0,0,1-15.088-3.795,10.774,10.774,0,0,1-1.5-4.636l-.04.013-8.134-33.5,5.186-3.06,21.826,28A10.887,10.887,0,0,1,96.067,230.172Z" transform="translate(-61.809 -166.181)" fill="#eae9c5"/>
      <path id="Path_27219" data-name="Path 27219" d="M78.02,209a6.817,6.817,0,0,1-6.335,2.218,18.245,18.245,0,0,1-2.365-.429l-1.838-7.572,5.186-3.06,5.912,7.584C78.405,208.162,78.217,208.582,78.02,209Z" transform="translate(-61.809 -166.181)" fill="#eae9c5"/>
      <path id="Path_27220" data-name="Path 27220" d="M71.067,196.546,66.5,198.112l-6.165-12.8.606-8.631,3.351-.947,1.7,8.512,3.879,6.11.26-3.942L68.257,181.1l1.635-.951,3.121,7.726Z" transform="translate(-60.335 -161.144)" fill="#ccc2fe"/>
      <path id="Path_27221" data-name="Path 27221" d="M148,203.369l42.364.751,0-.078c-.071-.034-.135-.074-.211-.114-.436-.236-.883-.491-1.331-.76-.07-.04-.14-.087-.211-.128-.383-.228-.767-.469-1.156-.723-.109-.067-.211-.14-.32-.208q-.583-.392-1.168-.8a2.5,2.5,0,0,0-.217-.154c-.963-.7-1.925-1.467-2.848-2.29-.471-.413-.928-.85-1.379-1.295a24.743,24.743,0,0,1-2.387-2.764l-18.278-.325a24.456,24.456,0,0,1-10.611,8.139C149.507,202.907,148.76,203.154,148,203.369Z" transform="translate(-78.421 -165.011)" fill="#d3d1a5"/>
      <path id="Path_27222" data-name="Path 27222" d="M146.064,205.127c.562-.122,1.112-.264,1.663-.417.757-.207,1.5-.445,2.241-.721a24.476,24.476,0,0,0,5.576-3.018l28.3.5c.5.388,1,.763,1.5,1.118a2.48,2.48,0,0,1,.217.148q.582.4,1.164.775c.109.065.21.136.318.2.389.246.771.479,1.153.7.071.039.14.084.21.123.446.26.893.506,1.326.734.077.039.14.078.211.11a.006.006,0,0,0,.006.006c.351.176.689.352,1.028.509a.229.229,0,0,0,.057.026c-.463-.052-.933-.086-1.409-.113A21.412,21.412,0,0,0,167.14,224.3l-.315-.018a21.379,21.379,0,0,0-20.379-18.849,4.012,4.012,0,0,0-.477-.009A2.269,2.269,0,0,1,146.064,205.127Z" transform="translate(-78.002 -166.35)" fill="#d3d1a5"/>
      <path id="Path_27223" data-name="Path 27223" d="M174.467,239.9h0c.7.012,1.289-1.129,1.314-2.537l.637-35.393c.025-1.407-.525-2.569-1.222-2.581h0c-.7-.013-1.288,1.129-1.314,2.536l-.636,35.394C173.22,238.729,173.77,239.89,174.467,239.9Z" transform="translate(-83.63 -166.024)" fill="#4a3e93"/>
      <path id="Path_27224" data-name="Path 27224" d="M175.086,200.936l.257,0a2.626,2.626,0,0,0,2.664-2.572h0a2.625,2.625,0,0,0-2.572-2.665l-.257,0a2.626,2.626,0,0,0-2.664,2.571h0A2.626,2.626,0,0,0,175.086,200.936Z" transform="translate(-83.479 -165.262)" fill="#4a3e93"/>
      <g id="Group_3764" data-name="Group 3764" transform="translate(81.993 0)">
        <path id="Path_27225" data-name="Path 27225" d="M184.847,179.97l.461.017a1.762,1.762,0,0,0,1.887-1.6l.129-3.214a1.746,1.746,0,0,0-1.753-1.731l-.461-.017a1.762,1.762,0,0,0-1.887,1.6l-.129,3.214A1.746,1.746,0,0,0,184.847,179.97Z" transform="translate(-167.654 -160.667)" fill="#b3a4f5"/>
        <path id="Path_27226" data-name="Path 27226" d="M165.4,178.993l.461.017a1.764,1.764,0,0,0,1.887-1.6l.129-3.214a1.746,1.746,0,0,0-1.753-1.73l-.461-.017a1.761,1.761,0,0,0-1.887,1.6l-.129,3.214A1.744,1.744,0,0,0,165.4,178.993Z" transform="translate(-163.641 -160.466)" fill="#b3a4f5"/>
        <path id="Path_27227" data-name="Path 27227" d="M172.7,183.8h0c3.92.143,7.246-2.675,7.39-6.261l.54-13.405c.144-3.586-2.945-6.636-6.865-6.779h0c-3.921-.142-7.246,2.676-7.39,6.261l-.54,13.405C165.694,180.608,168.783,183.658,172.7,183.8Z" transform="translate(-164.094 -157.351)" fill="#ccc2fe"/>
      </g>
      <path id="Path_27228" data-name="Path 27228" d="M162.5,194.739c.016,3.53,2.31,6.386,5.14,6.386s5.125-2.856,5.141-6.386Z" transform="translate(-81.413 -165.064)" fill="#eae9c5"/>
      <path id="Path_27229" data-name="Path 27229" d="M175.451,194.739c.015,3.53,2.31,6.386,5.14,6.386s5.124-2.856,5.14-6.386Z" transform="translate(-84.085 -165.064)" fill="#eae9c5"/>
    </g>
    <circle id="Ellipse_890" data-name="Ellipse 890" cx="1.926" cy="1.926" r="1.926" transform="translate(143.061 152.526)" fill="#4a3e93"/>
    <path id="Path_27230" data-name="Path 27230" d="M179.835,403.4l.235,0a3.714,3.714,0,0,0,3.738-3.668l.322-61.056a3.714,3.714,0,0,0-3.7-3.706H180.2a3.714,3.714,0,0,0-3.738,3.667l-.322,61.056A3.713,3.713,0,0,0,179.835,403.4Z" transform="translate(-31.503 -60.017)" fill="#745cd4"/>
    <path id="Path_27231" data-name="Path 27231" d="M203.524,399.778l.235,0a3.714,3.714,0,0,0,3.737-3.668l.322-61.056a3.714,3.714,0,0,0-3.7-3.706h-.235a3.714,3.714,0,0,0-3.738,3.667l-.321,61.056A3.713,3.713,0,0,0,203.524,399.778Z" transform="translate(-36.39 -59.269)" fill="#745cd4"/>
    <rect id="Rectangle_5872" data-name="Rectangle 5872" width="6.3" height="25.012" rx="3.15" transform="translate(133.617 261.533) rotate(-34.755)" fill="#745cd4"/>
    <rect id="Rectangle_5873" data-name="Rectangle 5873" width="6.3" height="28.319" rx="3.15" transform="translate(147.436 261.137) rotate(-47.774)" fill="#745cd4"/>
    <path id="Path_27232" data-name="Path 27232" d="M185.507,424.758h-8.087a2.93,2.93,0,0,1-2.922-2.921h0a2.93,2.93,0,0,1,2.922-2.922h8.087a2.93,2.93,0,0,1,2.921,2.922h0A2.929,2.929,0,0,1,185.507,424.758Z" transform="translate(-31.165 -77.335)" fill="#4a3e93"/>
    <path id="Path_27233" data-name="Path 27233" d="M209.507,419.729h-8.087a2.93,2.93,0,0,1-2.922-2.921h0a2.93,2.93,0,0,1,2.922-2.922h8.087a2.93,2.93,0,0,1,2.921,2.922h0A2.929,2.929,0,0,1,209.507,419.729Z" transform="translate(-36.117 -76.298)" fill="#4a3e93"/>
    <circle id="Ellipse_891" data-name="Ellipse 891" cx="14.92" cy="14.92" r="14.92" transform="translate(296.805 152.428)" fill="#ffd359"/>
    <rect id="Rectangle_5874" data-name="Rectangle 5874" width="24.002" height="1.99" rx="0.995" transform="translate(132.286 163.147)" fill="#eae9c5"/>
    <path id="Path_27234" data-name="Path 27234" d="M177.935,168.178a8.319,8.319,0,0,1-3.753-8.481,12.751,12.751,0,0,1-3.978.548c-3.311.161-6.712.218-9.522-1.809-3.27-2.359-9.777-9.043-5.024-12.905,2.749-2.234,5.539-1.66,8.105.643,2.265,2.033,2.74,5.152,5.693,6.638,2.355,1.184,4.207.529,6.655.939,3.9.655,3.562,5.541,3.114,8.486C178.947,164.069,178.843,166.546,177.935,168.178Z" transform="translate(-26.931 -20.64)" fill="#4a3e93"/>
    <g id="Group_3766" data-name="Group 3766" transform="translate(38.962 110.367)">
      <rect id="Rectangle_5875" data-name="Rectangle 5875" width="52.78" height="52.78" rx="12" fill="#ff75fe"/>
      <path id="Path_27235" data-name="Path 27235" d="M89.967,127.972c-8.869,16.6-16.336,34.286-31.713,46.077a63.582,63.582,0,0,1-8.434,5.457,9.428,9.428,0,0,0,4.109.95H87.659a9.552,9.552,0,0,0,9.524-9.524V137.2A9.553,9.553,0,0,0,89.967,127.972Z" transform="translate(-45.495 -127.592)" fill="#ff75fe" opacity="0.56" style="mix-blend-mode: multiply;isolation: isolate"/>
      <circle id="Ellipse_904" data-name="Ellipse 904" cx="21" cy="21" r="21" transform="translate(6.482 5.711)" fill="#fff"/>
      <g id="Group_3781" data-name="Group 3781" transform="translate(15.436 14.666)">
        <g id="Group_3780" data-name="Group 3780" transform="translate(0 0)">
          <circle id="Ellipse_905" data-name="Ellipse 905" cx="2.613" cy="2.613" r="2.613" transform="translate(2.779 0.01)" fill="#fcd088"/>
          <path id="Path_27258" data-name="Path 27258" d="M14.341,28.705A1.455,1.455,0,0,0,15.7,27.16l-.485-7.317a1.45,1.45,0,0,0-1.381-1.355L9.848,18.3c.048-.347.083-.676.107-.994H8.248a1.167,1.167,0,0,1-1.118-.846L6.2,13.168a1.161,1.161,0,0,1,1.118-1.477,1.165,1.165,0,0,1,1.117.845l.691,2.446H9.9a16.294,16.294,0,0,0-.48-2.29,2.659,2.659,0,0,0-2.9-2.161c-1,.19-1.518,1.547-1.252,2.719a19.33,19.33,0,0,1,.273,5.98c-.188,1.612.279,1.754,1.341,1.829l.123.007a1.145,1.145,0,0,0,.128.012l5.258.249.4,6.025a1.452,1.452,0,0,0,1.448,1.356C14.276,28.708,14.309,28.708,14.341,28.705Z" transform="translate(-2.129 -4.615)" fill="#315f99"/>
          <path id="Path_27259" data-name="Path 27259" d="M.668,11.231a15.946,15.946,0,0,1,1.118,5.407A7.277,7.277,0,0,1,1.1,19.889a3.327,3.327,0,0,0-.488,1.627,2.013,2.013,0,0,0,.9,1.7,5.269,5.269,0,0,0,3.018.685l.167,0v.5H4.513v.808l-4.066.982v.73a.727.727,0,1,0,.58.022v-.294L4.8,25.734v1.186a.726.726,0,1,0,.542,0V25.734l3.775.912v.294a.726.726,0,1,0,.581-.022v-.73l-4.065-.981V24.4H5.45v-.531a27.529,27.529,0,0,0,3.687-.526.581.581,0,0,0,.455-.683L9.526,21.32l-7.652-.342c.021-.064.044-.126.069-.183a2.469,2.469,0,0,1,.118-.245c.016-.028.028-.05.037-.062l.007-.012h0l.032-.057a8.411,8.411,0,0,0,.811-3.78A17.892,17.892,0,0,0,1.3,9.741a.581.581,0,1,0-1.044.509h0s0,.009.014.031c.025.052.081.173.157.349m.733,16.963a.445.445,0,1,1-.445-.446A.445.445,0,0,1,1.158,27.593Zm4.361,0a.445.445,0,1,1-.445-.446A.445.445,0,0,1,5.519,27.593Zm3.915.445a.445.445,0,1,1,.446-.445A.445.445,0,0,1,9.434,28.038Z" transform="translate(0.013 -4.17)" fill="#568ac8"/>
          <rect id="Rectangle_5888" data-name="Rectangle 5888" width="5.576" height="0.522" transform="translate(10.139 12.795)" fill="#d89028"/>
          <path id="Path_27260" data-name="Path 27260" d="M34.263,18.6v-1.1H23.131v1.1h9.176V30.1H23.886v1.1H34.263V30.1H33.6V18.6Z" transform="translate(-9.488 -7.486)" fill="#d89028"/>
          <path id="Path_27261" data-name="Path 27261" d="M22.66,21.023V20.48H19.483a1.17,1.17,0,0,1-.28.543Z" transform="translate(-7.875 -8.712)" fill="#568ac8"/>
          <path id="Path_27262" data-name="Path 27262" d="M9.032,13.593a.929.929,0,1,0-1.788.505h0l.931,3.291a.93.93,0,0,0,.894.676h4.354a.929.929,0,1,0,0-1.859H9.772Z" transform="translate(-2.952 -5.607)" fill="#315f99"/>
          <path id="Path_27263" data-name="Path 27263" d="M32.064.673V8.029H33.07V6.268h.561V4.627h.9V9.6H33.08v.639h3.6V9.6H35.2V3.532h-.669v.544h-.9V2.434H33.07V.673Z" transform="translate(-13.155 -0.581)" fill="#568ac8"/>
          <path id="Path_27264" data-name="Path 27264" d="M4.966,1.946A2.644,2.644,0,0,1,8.5.794c1.3.635-1.625.511-2.26,1.807s.134,2.57-1.162,1.935A2.382,2.382,0,0,1,4.966,1.946Z" transform="translate(-1.899 -0.518)" fill="#333"/>
        </g>
        <path id="Path_27265" data-name="Path 27265" d="M23.806.518H17.349a.589.589,0,0,0-.587.587V7.563a.588.588,0,0,0,.587.587h6.457a.588.588,0,0,0,.587-.587V1.105A.589.589,0,0,0,23.806.518Zm-3.668,5.9-.411.41-.616-.616-.616.617-.411-.41L18.7,5.8l-.617-.617.411-.411.616.617.616-.617.411.411L19.52,5.8Zm.146-3.258H19.4v.881h-.587V3.16h-.881V2.573h.881V1.692H19.4v.881h.881Zm.733,3.258L22.69,4.745l.412.411L21.428,6.828Zm0-1.644a.291.291,0,1,1,0,.411A.284.284,0,0,1,21.017,4.774Zm2.056,2.054a.29.29,0,1,1,0-.41A.283.283,0,0,1,23.073,6.829ZM23.22,3.16H20.871V2.573H23.22Z" transform="translate(-6.873 -0.518)" fill="#568ac8"/>
      </g>
    </g>
    <g id="Group_3767" data-name="Group 3767" transform="translate(94.875 60.745)">
      <rect id="Rectangle_5876" data-name="Rectangle 5876" width="43.765" height="43.765" rx="9.95" fill="#70e5ff"/>
      <path id="Path_27236" data-name="Path 27236" d="M152.655,65.735c-7.354,13.768-13.546,28.43-26.3,38.206a52.589,52.589,0,0,1-6.993,4.525,7.8,7.8,0,0,0,3.406.788h27.97a7.921,7.921,0,0,0,7.9-7.9V73.387A7.921,7.921,0,0,0,152.655,65.735Z" transform="translate(-114.665 -65.213)" fill="#ff75fe" opacity="0.56" style="mix-blend-mode: multiply;isolation: isolate"/>
      <circle id="Ellipse_906" data-name="Ellipse 906" cx="17.5" cy="17.5" r="17.5" transform="translate(4.568 4.333)" fill="#fff"/>
      <g id="Group_3782" data-name="Group 3782" transform="translate(7.937 13.493)">
        <path id="Path_27266" data-name="Path 27266" d="M21.07,15.213v2l-1.726.027a2.783,2.783,0,0,0,.534.064,1,1,0,0,1,.975,1.023c0,.019,0,.038,0,.056h.043v-.464h.463v.464h.465v-.464h.464v.464h.464v-.464h.464v.464h.465v-.464h.464v.464H24.6v-.464h.464v.464h.463v-.464h.465v.464h.464v-.464h.463v.464h.465v-.464h.464v.464h.465v-.464h.464v.464h.465v-.464h.464v.464h.464v-.464h.464v.464h-.464v.463h-.464v-.463h-.464v.463h-.465v-.463h-.464v.463h-.464v-.463h-.464v.463h-.465v-.463H26.46v.463H26v-.463H25.53v.463h-.463v-.463H24.6v.463h-.464v-.463h-.464v.463H23.21v-.463h-.464v.463h-.465v-.463h-.464v.463h-.465v-.463h-.463v.463h-.2a1,1,0,0,1-.835.456h-.024a4.611,4.611,0,0,1-1.906-.454h-.28V18.7a4.831,4.831,0,0,1-.464-.3v.446h-.464v-.463H16.25v.463h-.072v2.008H27.46a1.584,1.584,0,0,1,3.165,0h2.551a.619.619,0,0,0,0-1.237h-.065l.261-.6s.2-.734-.077-.839a19.867,19.867,0,0,0-5.267-1.066,11.033,11.033,0,0,0-2.7-2.634,7.256,7.256,0,0,0-1.193-.053l-.132-.782h-.6l-.132.786c-1.788.02-4.445.105-6.814.211a7.09,7.09,0,0,1,.567.687C18.276,15.276,19.648,15.234,21.07,15.213Zm5.981,1.428h-.586a.472.472,0,0,0-.472.472v.017L21.46,17.2v-2c.6-.008,1.213-.011,1.827-.011a17.745,17.745,0,0,1,1.988.044A6.013,6.013,0,0,1,27.05,16.641Z" transform="translate(-4.891 -9.758)" fill="#315f99"/>
        <path id="Path_27267" data-name="Path 27267" d="M16.606,19.586c-.155-.148-.3-.3-.427-.448v.912h.072v-.464Z" transform="translate(-4.891 -11.425)"/>
        <path id="Path_27268" data-name="Path 27268" d="M17.3,20.224c-.125-.1-.242-.2-.354-.3v.363h.441C17.36,20.267,17.33,20.246,17.3,20.224Z" transform="translate(-5.125 -11.664)"/>
        <path id="Path_27269" data-name="Path 27269" d="M4.72,20.18a1.691,1.691,0,0,1,.26.022A14.527,14.527,0,0,1,5.1,18.279l-.265.024c.1-.164.219-.341.345-.516A6.44,6.44,0,0,1,5.5,16.646c.024-.059.047-.116.071-.171a9.652,9.652,0,0,0-1.17,1.87,13.527,13.527,0,0,0-3.164.537C.9,19.1.681,19.934.564,20.545a.619.619,0,0,0,.283,1.168H3.138A1.584,1.584,0,0,1,4.72,20.18Z" transform="translate(-0.053 -10.617)" fill="#315f99"/>
        <path id="Path_27270" data-name="Path 27270" d="M7.143,24.276a1,1,0,0,1-.583-.45.543.543,0,1,1-.155-.777c-.013-.272-.021-.537-.024-.793a1.245,1.245,0,0,0-.261-.027,1.28,1.28,0,1,0,1.023,2.047Z" transform="translate(-1.451 -12.363)" fill="#568ac8"/>
        <path id="Path_27271" data-name="Path 27271" d="M34.089,22.229a1.281,1.281,0,1,0,1.28,1.28A1.28,1.28,0,0,0,34.089,22.229Zm.543,1.28a.542.542,0,1,1-.542-.542A.542.542,0,0,1,34.632,23.509Z" transform="translate(-9.937 -12.363)" fill="#568ac8"/>
        <rect id="Rectangle_5889" data-name="Rectangle 5889" width="0.094" height="0.764" transform="translate(13.636 5.964) rotate(-45.146)" fill="#315f99"/>
        <rect id="Rectangle_5890" data-name="Rectangle 5890" width="0.094" height="0.763" transform="translate(13.331 6.266) rotate(-44.562)" fill="#315f99"/>
        <rect id="Rectangle_5891" data-name="Rectangle 5891" width="0.095" height="1.491" transform="matrix(0.703, -0.711, 0.711, 0.703, 13.227, 5.858)" fill="#315f99"/>
        <rect id="Rectangle_5892" data-name="Rectangle 5892" width="0.095" height="0.763" transform="matrix(0.711, -0.703, 0.703, 0.711, 17.879, 5.96)" fill="#315f99"/>
        <rect id="Rectangle_5893" data-name="Rectangle 5893" width="0.093" height="0.763" transform="translate(17.573 6.268) rotate(-45)" fill="#315f99"/>
        <rect id="Rectangle_5894" data-name="Rectangle 5894" width="0.095" height="1.491" transform="matrix(0.711, -0.703, 0.703, 0.711, 17.473, 5.853)" fill="#315f99"/>
        <path id="Path_27272" data-name="Path 27272" d="M6.543,26.237H-.024v.321H6.543Z" transform="translate(0.024 -13.579)" fill="#d89028"/>
        <path id="Path_27273" data-name="Path 27273" d="M16.179,26.237v.321h18v-.321h-18Z" transform="translate(-4.891 -13.579)" fill="#d89028"/>
        <path id="Path_27274" data-name="Path 27274" d="M7.706,21.093a.571.571,0,0,0,.57.538H8.31a.57.57,0,0,0,.536-.6c-.028-.475-.04-.907-.04-1.3a7.577,7.577,0,0,1,.5-3.208V27.23a.883.883,0,1,0,1.767,0V20.783H11.4V27.23a.884.884,0,1,0,1.767,0V16.59l.138.183a7.849,7.849,0,0,0,1.443,1.556,4.171,4.171,0,0,0,2.507.892h.015a.572.572,0,0,0,.013-1.143,2.976,2.976,0,0,1-1.553-.456,5.991,5.991,0,0,1-1.544-1.579,7.758,7.758,0,0,0-.64-.783,1.881,1.881,0,0,0-.4-.311,1.169,1.169,0,0,0-.427-.145.558.558,0,0,0-.109-.011h-.632c.077.411.387,2.249-.146,2.593-.084.054-.154.1-.217.139l-.17-1.7a.851.851,0,0,1-.214.029h0a.861.861,0,0,1-.215-.029l-.17,1.7-.217-.139c-.533-.344-.224-2.181-.146-2.593H9.828a1.357,1.357,0,0,0-.586.153,2.408,2.408,0,0,0-1.088,1.344,9.466,9.466,0,0,0-.492,3.432C7.663,20.145,7.677,20.6,7.706,21.093Z" transform="translate(-2.308 -10.107)" fill="#315f99"/>
        <path id="Path_27275" data-name="Path 27275" d="M10.347,9.928a.232.232,0,0,0,.067.125,1.607,1.607,0,1,0,3.005,0,.234.234,0,0,0,.068-.125c.187.007.331-.024.394-.124.213-.336-.334-1.738-1.964-1.738S9.741,9.468,9.954,9.8C10.017,9.9,10.161,9.935,10.347,9.928Zm1.57-.76c.867,0,1.572.224,1.572.5a.194.194,0,0,1-.045.118,2.3,2.3,0,0,0-1.526-.38,2.3,2.3,0,0,0-1.526.38.193.193,0,0,1-.045-.118C10.346,9.392,11.049,9.168,11.917,9.168Z" transform="translate(-2.99 -8.066)" fill="#fcd088"/>
        <path id="Path_27276" data-name="Path 27276" d="M12.66,14.99h-.2l-.1.536.056.121a.6.6,0,0,0,.244.052.6.6,0,0,0,.244-.052l.056-.121-.1-.536Z" transform="translate(-3.733 -10.167)" fill="#315f99"/>
        <path id="Path_27277" data-name="Path 27277" d="M13.42,10.053a.234.234,0,0,0,.068-.125c.187.007.331-.024.394-.124.213-.336-.334-1.738-1.964-1.738S9.741,9.468,9.954,9.8c.063.1.207.131.394.124a.232.232,0,0,0,.067.125m1.5-.885c.867,0,1.572.224,1.572.5a.194.194,0,0,1-.045.118,2.3,2.3,0,0,0-1.526-.38,2.3,2.3,0,0,0-1.526.38.193.193,0,0,1-.045-.118C10.346,9.392,11.049,9.168,11.917,9.168Z" transform="translate(-2.99 -8.066)" fill="#315f99"/>
      </g>
    </g>
    <g id="Group_3768" data-name="Group 3768" transform="translate(290.719 144.082)">
      <path id="Rectangle_5877" data-name="Rectangle 5877" d="M8.961,0H30.454a8.962,8.962,0,0,1,8.962,8.962V30.454a8.962,8.962,0,0,1-8.962,8.962H8.961A8.961,8.961,0,0,1,0,30.454V8.961A8.961,8.961,0,0,1,8.961,0Z" fill="#70e5ff"/>
      <path id="Path_27237" data-name="Path 27237" d="M395.273,170.512c-6.623,12.4-12.2,25.6-23.684,34.409a47.6,47.6,0,0,1-6.3,4.076,7.039,7.039,0,0,0,3.068.71H393.55a7.133,7.133,0,0,0,7.112-7.113V177.4A7.134,7.134,0,0,0,395.273,170.512Z" transform="translate(-361.247 -170.167)" fill="#ff75fe" opacity="0.56" style="mix-blend-mode: multiply;isolation: isolate"/>
      <circle id="Ellipse_914" data-name="Ellipse 914" cx="17.5" cy="17.5" r="17.5" transform="translate(2.725 1.996)" fill="#fff"/>
      <g id="Group_3816" data-name="Group 3816" transform="translate(8.927 9.524)">
        <path id="Path_27341" data-name="Path 27341" d="M21.174,21.438V19.393H19.711a12.619,12.619,0,0,1,.215,2.045Z" transform="translate(-9.163 -9.711)" fill="#568ac8"/>
        <path id="Path_27342" data-name="Path 27342" d="M20.054,25.216H19.9V21.577H18.659c0,.153.007.308.007.469,0,.459-.015.956-.045,1.475a1.059,1.059,0,0,1-1.057,1,.644.644,0,0,1-.065,0,1.041,1.041,0,0,1-.569-.209v1.272H30.5v-.423H29.4V19.394H20.054Zm6.688-1H22.36V21.11h4.382Zm-3.656-3.726a.195.195,0,1,1-.194.195A.194.194,0,0,1,23.086,20.493Zm-.565,0a.195.195,0,1,1-.195.195A.195.195,0,0,1,22.521,20.493Z" transform="translate(-7.892 -9.712)" fill="#d89028"/>
        <path id="Path_27343" data-name="Path 27343" d="M21.861,18.605v-.327H19.443c.03.105.059.215.085.327Z" transform="translate(-9.04 -9.202)" fill="#568ac8"/>
        <rect id="Rectangle_5895" data-name="Rectangle 5895" width="3.63" height="0.327" transform="translate(14.783 9.076)" fill="#568ac8"/>
        <path id="Path_27344" data-name="Path 27344" d="M18.811,16.658h1.559l.389-1.419-.219-.06h0l-.169.616H18.583l-.168-.616-.218.06.078.283.031.045A4.549,4.549,0,0,1,18.811,16.658Z" transform="translate(-8.471 -7.786)" fill="#568ac8"/>
        <path id="Path_27345" data-name="Path 27345" d="M8.563,31.092v4.244a.935.935,0,0,0,1.87,0V31.511A6.14,6.14,0,0,1,8.563,31.092Z" transform="translate(-4.069 -15.056)" fill="#315f99"/>
        <path id="Path_27346" data-name="Path 27346" d="M14.8,16.538l.7,3.41V16.5a3.089,3.089,0,0,1,.135.32,9.341,9.341,0,0,1,.392,3.073c0,.417-.013.874-.043,1.378a.606.606,0,0,0,.569.639h.035a.6.6,0,0,0,.6-.569c.031-.524.045-1.006.045-1.448a7.89,7.89,0,0,0-.865-4.3,2.147,2.147,0,0,0-.807-.753,1.492,1.492,0,0,0-.506-.153Z" transform="translate(-6.917 -7.559)" fill="#315f99"/>
        <path id="Path_27347" data-name="Path 27347" d="M12.651,31.495v3.827a.935.935,0,1,0,1.869,0V31.061A6.188,6.188,0,0,1,12.651,31.495Z" transform="translate(-5.937 -15.042)" fill="#315f99"/>
        <path id="Path_27348" data-name="Path 27348" d="M10.03,14.256l.25,1.763h2l.25-1.763h-.259l.116-.454.009-.035-.106.035-.845.276v.64h-.3v-.632L10.27,13.8l-.106-.035.009.035.117.454Z" transform="translate(-4.74 -7.141)" fill="#315f99"/>
        <path id="Path_27349" data-name="Path 27349" d="M11.174,11.513a1.7,1.7,0,0,0,1.238-2.452,5.283,5.283,0,0,0-1.515-.3,5.273,5.273,0,0,0-1.515.3,1.7,1.7,0,0,0,1.238,2.452,1.69,1.69,0,0,0,.553,0Z" transform="translate(-4.359 -4.852)" fill="#fcd088"/>
        <path id="Path_27350" data-name="Path 27350" d="M10.1,5.387a5.388,5.388,0,0,1,1.577.325l.038.014a4.272,4.272,0,0,1-.068-.576c-.013-.312.019-.652.2-.745.23-.115.785-.384.88-.772.052-.212-.035-.459-.387-.736a1.251,1.251,0,0,1-.554.315c.081-.081.248-.3.364-.454a9.773,9.773,0,0,0-.84-.549,1.325,1.325,0,0,1-.4.383c.051-.092.14-.311.207-.487a2.086,2.086,0,0,0-1.018-.23,2.09,2.09,0,0,0-1.018.229c.068.176.156.4.207.487a1.318,1.318,0,0,1-.4-.383,9.885,9.885,0,0,0-.84.55c.117.155.283.373.365.454A1.266,1.266,0,0,1,7.859,2.9c-.351.278-.437.525-.386.736.094.388.65.657.879.772.185.092.217.432.2.745a4.124,4.124,0,0,1-.067.576l.038-.014A5.406,5.406,0,0,1,10.1,5.387Z" transform="translate(-3.565 -1.708)" fill="#315f99"/>
        <path id="Path_27351" data-name="Path 27351" d="M2.879,24.563l-.59-.351L3.41,22.327l.248-.416h.074a.606.606,0,0,0,.568-.64c-.008-.14-.015-.275-.021-.408l.425-.714-.346-.206-.1.166c0-.073,0-.144,0-.215a8.029,8.029,0,0,1,.527-3.4v3.251l.683-3.311h.007l-.249-1.755a1.517,1.517,0,0,0-.506.154,2.552,2.552,0,0,0-1.152,1.425,10.007,10.007,0,0,0-.52,3.633c0,.443.015.924.045,1.448a.6.6,0,0,0,.192.407l-.235.4L1.942,24.006l-.591-.351L.289,25.442l1.527.908Zm-2.145.7.657-1.105.195.115L.929,25.384Zm.414.246.657-1.105L2,24.525l-.657,1.1Zm.414.247.656-1.106.2.117-.657,1.1Z" transform="translate(-0.289 -7.559)" fill="#568ac8"/>
        <rect id="Rectangle_5896" data-name="Rectangle 5896" width="5.998" height="1.21" transform="translate(13.683 3.81)" fill="#568ac8"/>
        <path id="Path_27352" data-name="Path 27352" d="M30.862,5.425H27.491L27,6.887H31.35Z" transform="translate(-12.495 -3.329)" fill="#568ac8"/>
        <rect id="Rectangle_5897" data-name="Rectangle 5897" width="2.456" height="1.769" transform="translate(15.453 0)" fill="#568ac8"/>
        <path id="Path_27353" data-name="Path 27353" d="M31.312,15.478c0-.578-4.941-.578-4.941,0s1.106,1.046,2.47,1.046S31.312,16.056,31.312,15.478Zm-2.471.189a5.257,5.257,0,0,1-1.965-.19,5.284,5.284,0,0,1,1.965-.188,5.282,5.282,0,0,1,1.966.188A5.242,5.242,0,0,1,28.841,15.667Z" transform="translate(-12.206 -7.725)" fill="#568ac8"/>
        <path id="Path_27354" data-name="Path 27354" d="M31.283,22.862H27.234v2.774h4.049Zm-.166,2.607H27.4V23.028h3.715Z" transform="translate(-12.6 -11.296)" fill="#d89028"/>
      </g>
    </g>
    <g id="Group_3769" data-name="Group 3769" transform="translate(161.545 90.111)">
      <path id="Rectangle_5878" data-name="Rectangle 5878" d="M8.272,0H28.11a8.272,8.272,0,0,1,8.272,8.272V28.11a8.271,8.271,0,0,1-8.271,8.271H8.272A8.272,8.272,0,0,1,0,28.109V8.272A8.272,8.272,0,0,1,8.272,0Z" transform="translate(0 0)" fill="#ffd359"/>
      <path id="Path_27238" data-name="Path 27238" d="M229.872,102.822c-6.114,11.445-11.261,23.633-21.86,31.76a43.743,43.743,0,0,1-5.814,3.761,6.494,6.494,0,0,0,2.832.655h23.252a6.584,6.584,0,0,0,6.565-6.565V109.183A6.585,6.585,0,0,0,229.872,102.822Z" transform="translate(-198.425 -102.231)" fill="#ff75fe" opacity="0.56" style="mix-blend-mode: multiply;isolation: isolate"/>
      <circle id="Ellipse_907" data-name="Ellipse 907" cx="15" cy="15" r="15" transform="translate(2.899 2.966)" fill="#fff"/>
      <g id="Group_3783" data-name="Group 3783" transform="translate(9.524 9.524)">
        <path id="Path_27278" data-name="Path 27278" d="M4.837,12.1V7.138A3.32,3.32,0,0,0,6.489,3.152L4.535,5.09a.733.733,0,0,1-1.034,0L2.416,4a.733.733,0,0,1,0-1.034L4.35,1.014A3.325,3.325,0,0,0,1.812,7.137V12.1A3.32,3.32,0,0,0,.161,16.088L2.115,14.15a.733.733,0,0,1,1.034,0l1.086,1.086a.733.733,0,0,1,0,1.034L2.3,18.226A3.325,3.325,0,0,0,4.837,12.1Z" transform="translate(0.002 -0.549)" fill="#568ac8"/>
        <path id="Path_27279" data-name="Path 27279" d="M4.842,25.637V21.844L1.82,24.868v.769A3.32,3.32,0,0,0,.169,29.622l1.954-1.938a.733.733,0,0,1,1.034,0l1.086,1.086a.733.733,0,0,1,0,1.034L2.307,31.761a3.325,3.325,0,0,0,2.538-6.124Z" transform="translate(-0.003 -14.083)" fill="#315f99"/>
        <path id="Path_27280" data-name="Path 27280" d="M8.512,17.872h.6v5.443h-.6Z" transform="translate(-5.487 -11.522)" fill="#6f9bd1"/>
        <path id="Path_27281" data-name="Path 27281" d="M28.512,27.928v-2.66a1.814,1.814,0,0,0-1.558-1.8l-2.676-.382V21.276H21.255V23.09l-2.8.6a1.814,1.814,0,0,0-1.434,1.774v2.464" transform="translate(-10.973 -13.717)" fill="#fec9a3"/>
        <path id="Path_27282" data-name="Path 27282" d="M28.937,21.276v1.053a2.72,2.72,0,0,0,3.024,0V21.276Z" transform="translate(-18.655 -13.717)" fill="#fcd088"/>
        <path id="Path_27283" data-name="Path 27283" d="M26.955,26.765l-2.676-.382L23.631,28.2H21.9l-.648-1.814-2.8.6a1.814,1.814,0,0,0-1.434,1.774v2.464h11.49v-2.66A1.814,1.814,0,0,0,26.955,26.765Z" transform="translate(-10.973 -17.009)" fill="#e0e0de"/>
        <path id="Path_27284" data-name="Path 27284" d="M28.512,28.561v3.264H26.4V34.85H19.138V32.128H17.022V28.757a1.814,1.814,0,0,1,1.434-1.774l2.8-.6,1.512,4.233,1.512-4.233,2.676.382a1.815,1.815,0,0,1,1.558,1.8Z" transform="translate(-10.973 -17.009)" fill="#568ac8"/>
        <path id="Path_27285" data-name="Path 27285" d="M32.354,30.131V33.4H30.237V36.42H22.98V34.992c3.462-1.376,6.375-2.838,8.811-6.173A1.812,1.812,0,0,1,32.354,30.131Z" transform="translate(-14.814 -18.58)" fill="#315f99"/>
        <path id="Path_27286" data-name="Path 27286" d="M25.732,26.078l.232,2.78,1.65-.943-.743-2.383Z" transform="translate(-16.589 -16.461)" fill="#315f99"/>
        <path id="Path_27287" data-name="Path 27287" d="M35.356,27.915l1.65.943L37.245,26,36.1,25.532Z" transform="translate(-22.793 -16.461)" fill="#315f99"/>
        <path id="Path_27288" data-name="Path 27288" d="M30.976,5.275V7.391a2.721,2.721,0,0,1-2.722,2.722h0a2.815,2.815,0,0,1-.284-.014,2.722,2.722,0,0,1-2.437-2.707V5.275a2.722,2.722,0,0,1,2.721-2.722c.076,0,.15,0,.225.009h0A2.721,2.721,0,0,1,30.976,5.275Z" transform="translate(-16.46 -1.646)" fill="#fcd088"/>
        <path id="Path_27289" data-name="Path 27289" d="M35.4,5.292V7.408a2.721,2.721,0,0,1-2.722,2.722h0a2.815,2.815,0,0,1-.284-.014A3.326,3.326,0,0,0,34.3,7.106V5.292A3.33,3.33,0,0,0,32.9,2.58,2.722,2.722,0,0,1,35.4,5.292Z" transform="translate(-20.882 -1.663)" fill="#f8ca7e"/>
        <path id="Path_27290" data-name="Path 27290" d="M26.959,4.165a6.6,6.6,0,0,0,2.585,0l.219-.044,1.208,1.411v-.2a2.722,2.722,0,0,0-5.443,0v.2l1.208-1.411Z" transform="translate(-16.458 -1.702)" fill="#7a432a"/>
        <path id="Path_27291" data-name="Path 27291" d="M30.679,8.855a.918.918,0,0,1-1.068.9l-.829-.138a7.266,7.266,0,0,0-2.386,0l-.829.138a.917.917,0,0,1-1-1.244h6.047A.923.923,0,0,1,30.679,8.855Z" transform="translate(-15.795 -5.488)" fill="#568ac8"/>
        <path id="Path_27292" data-name="Path 27292" d="M30.729,1.814V3.022H24.682V1.814A1.814,1.814,0,0,1,26.5,0h2.419a1.811,1.811,0,0,1,.574.093l.1.036A1.812,1.812,0,0,1,30.729,1.814Z" transform="translate(-15.912)" fill="#568ac8"/>
        <path id="Path_27293" data-name="Path 27293" d="M32.375,2.046V3.254h-5.14a8.031,8.031,0,0,0,4-2.894A1.812,1.812,0,0,1,32.375,2.046Z" transform="translate(-17.558 -0.232)" fill="#315f99"/>
        <path id="Path_27294" data-name="Path 27294" d="M29.788,5.106h2.419V6.314H29.788Z" transform="translate(-19.204 -3.292)" fill="#d89028"/>
        <path id="Path_27295" data-name="Path 27295" d="M29.788,6.808h2.419v.6H29.788Z" transform="translate(-19.204 -4.389)" fill="#d89028"/>
        <path id="Path_27296" data-name="Path 27296" d="M37.04,8.854a.918.918,0,0,1-1.068.9l-.829-.138a7.192,7.192,0,0,0-.776-.087,4.338,4.338,0,0,0,1.542-1.019h1.064A.92.92,0,0,1,37.04,8.854Z" transform="translate(-22.156 -5.487)" fill="#315f99"/>
      </g>
    </g>
    <path id="Path_27239" data-name="Path 27239" d="M278.231,198.674H232.4a4.433,4.433,0,0,1-4.42-4.42h0a4.434,4.434,0,0,1,4.42-4.421h45.834a4.434,4.434,0,0,1,4.42,4.421h0A4.433,4.433,0,0,1,278.231,198.674Z" transform="translate(-42.198 -30.072)" fill="#ccc2fe"/>
    <path id="Path_27240" data-name="Path 27240" d="M428.588,287.368H382.754a4.434,4.434,0,0,1-4.42-4.421h0a4.433,4.433,0,0,1,4.42-4.42h45.834a4.433,4.433,0,0,1,4.42,4.42h0A4.434,4.434,0,0,1,428.588,287.368Z" transform="translate(-73.22 -48.371)" fill="#ccc2fe"/>
    <path id="Path_27241" data-name="Path 27241" d="M285.622,179.2H248.133a4.814,4.814,0,0,1-4.8-4.8h0a4.814,4.814,0,0,1,4.8-4.8h37.489a4.813,4.813,0,0,1,4.8,4.8h0A4.814,4.814,0,0,1,285.622,179.2Z" transform="translate(-45.367 -25.897)" fill="#ccc2fe"/>
    <path id="Path_27242" data-name="Path 27242" d="M436.268,267.054h-37.49a4.813,4.813,0,0,1-4.8-4.8h0a4.814,4.814,0,0,1,4.8-4.8h37.49a4.814,4.814,0,0,1,4.8,4.8h0A4.813,4.813,0,0,1,436.268,267.054Z" transform="translate(-76.447 -44.023)" fill="#ccc2fe"/>
    <path id="Path_27243" data-name="Path 27243" d="M378.784,242.884H364.351a4.7,4.7,0,0,1-4.689-4.688h0a4.7,4.7,0,0,1,4.689-4.688h14.433a4.7,4.7,0,0,1,4.688,4.688h0A4.7,4.7,0,0,1,378.784,242.884Z" transform="translate(-69.367 -39.082)" fill="#8b77e8"/>
    <path id="Path_27244" data-name="Path 27244" d="M417.427,242.884H402.993A4.7,4.7,0,0,1,398.3,238.2h0a4.7,4.7,0,0,1,4.688-4.688h14.434a4.7,4.7,0,0,1,4.688,4.688h0A4.7,4.7,0,0,1,417.427,242.884Z" transform="translate(-77.34 -39.082)" fill="#8b77e8"/>
    <path id="Path_27245" data-name="Path 27245" d="M440.451,216.8H426.017a4.7,4.7,0,0,1-4.688-4.688h0a4.7,4.7,0,0,1,4.688-4.688h14.434a4.7,4.7,0,0,1,4.688,4.688h0A4.7,4.7,0,0,1,440.451,216.8Z" transform="translate(-82.09 -33.702)" fill="#ccc2fe"/>
    <path id="Path_27246" data-name="Path 27246" d="M337.971,154.3H323.538a4.7,4.7,0,0,1-4.689-4.688h0a4.7,4.7,0,0,1,4.689-4.688h14.433a4.7,4.7,0,0,1,4.688,4.688h0A4.7,4.7,0,0,1,337.971,154.3Z" transform="translate(-60.947 -20.806)" fill="#ccc2fe"/>
    <rect id="Rectangle_5879" data-name="Rectangle 5879" width="23.811" height="9.377" rx="4.688" transform="translate(226.563 123.971)" fill="#ccc2fe"/>
    <path id="Path_27247" data-name="Path 27247" d="M411.88,352.976H397.446a4.7,4.7,0,0,1-4.688-4.688h0a4.7,4.7,0,0,1,4.688-4.688H411.88a4.7,4.7,0,0,1,4.688,4.688h0A4.7,4.7,0,0,1,411.88,352.976Z" transform="translate(-76.195 -61.796)" fill="#ccc2fe"/>
    <rect id="Rectangle_5880" data-name="Rectangle 5880" width="23.811" height="9.377" rx="4.688" transform="translate(256.832 143.886)" fill="#8b77e8"/>
    <path id="Path_27248" data-name="Path 27248" d="M355.456,135.352H341.022a4.7,4.7,0,0,1-4.688-4.688h0a4.7,4.7,0,0,1,4.688-4.688h14.434a4.7,4.7,0,0,1,4.688,4.688h0A4.7,4.7,0,0,1,355.456,135.352Z" transform="translate(-64.554 -16.897)" fill="#8b77e8"/>
    <rect id="Rectangle_5881" data-name="Rectangle 5881" width="23.811" height="9.377" rx="4.688" transform="translate(332.87 246.122)" fill="#8b77e8"/>
    <rect id="Rectangle_5882" data-name="Rectangle 5882" width="33.194" height="34.15" rx="7.655" transform="translate(241.131 283.062)" fill="#fcddfc"/>
    <g id="Group_3771" data-name="Group 3771" transform="translate(218.69 58.364)">
      <g id="Group_3770" data-name="Group 3770">
        <rect id="Rectangle_5883" data-name="Rectangle 5883" width="36.924" height="36.924" rx="8.395" fill="#ff75fe"/>
        <path id="Path_27249" data-name="Path 27249" d="M302.113,62.193c-6.205,11.616-11.429,23.986-22.187,32.235a44.467,44.467,0,0,1-5.9,3.818,6.588,6.588,0,0,0,2.874.664h23.6a6.682,6.682,0,0,0,6.663-6.663v-23.6A6.684,6.684,0,0,0,302.113,62.193Z" transform="translate(-270.389 -62.101)" fill="#ff75fe" opacity="0.56" style="mix-blend-mode: multiply;isolation: isolate"/>
        <circle id="Ellipse_908" data-name="Ellipse 908" cx="15.5" cy="15.5" r="15.5" transform="translate(2.754 2.714)" fill="#fff"/>
        <g id="Group_3784" data-name="Group 3784" transform="translate(7.937 8.731)">
          <path id="Path_27297" data-name="Path 27297" d="M28.039,21.127l-.621-1.812a.43.43,0,0,0-.091-.15.84.84,0,0,1-.795.782c-.106,0-.21.008-.31.008h-.009A5.573,5.573,0,0,1,25.4,19.9a.42.42,0,0,0,.567.4h0l.8-.3,1.892,5.519a2.918,2.918,0,0,1,4.612.405c.314-.015.4-.2-.11-.856A3.282,3.282,0,0,0,30.42,23.81c-.05-.135-.1-.275-.156-.424A3.947,3.947,0,0,0,28.039,21.127Z" transform="translate(-12.885 -10.172)" fill="#315f99"/>
          <path id="Path_27298" data-name="Path 27298" d="M21.067,5.866v.018c.021.406.114.688.115.969a.885.885,0,0,1-.106.435.081.081,0,0,1-.034.034,1.517,1.517,0,0,1-.731.162,5.29,5.29,0,0,1-.672-.059,2.722,2.722,0,0,1-.566-.131,1.887,1.887,0,0,0,3.176-2.006,2.379,2.379,0,0,0-1.022.3A.34.34,0,0,0,21.067,5.866Z" transform="translate(-9.716 -3.222)" fill="#fcd088"/>
          <path id="Path_27299" data-name="Path 27299" d="M15.525,12.569h0l0-.008a.839.839,0,0,1,.764-1.186.841.841,0,0,1,.764.492l0,.008c.006.012.016.033.031.06.029.055.079.143.147.25a4.694,4.694,0,0,0,.346.472,1.527,1.527,0,0,0-.833-1.833,1.92,1.92,0,0,0-2.177,1.438,9.267,9.267,0,0,0-.476,4.658,1.586,1.586,0,0,0,1.481,1.458l.008,0,3.182.494,1.191,3.021a1.048,1.048,0,0,0,.976.664,1.035,1.035,0,0,0,.385-.074,1.049,1.049,0,0,0,.591-1.36l-1.413-3.579a1.049,1.049,0,0,0-.814-.652l-2.636-.41a10.481,10.481,0,0,1,.152-1.869,5.81,5.81,0,0,1-.512-.454A5.988,5.988,0,0,1,15.525,12.569Z" transform="translate(-7.171 -5.973)" fill="#315f99"/>
          <path id="Path_27300" data-name="Path 27300" d="M22.126,16.351h.009c.1,0,.2,0,.3-.008A.671.671,0,0,0,22.369,15c-.08,0-.158.006-.234.006a3.82,3.82,0,0,1-2.762-1.157,4.792,4.792,0,0,1-.657-.815c-.071-.11-.122-.2-.154-.261-.016-.03-.027-.052-.034-.066l-.006-.012h0a.671.671,0,0,0-1.221.555A5.731,5.731,0,0,0,18.429,14.8,5.173,5.173,0,0,0,22.126,16.351Z" transform="translate(-8.799 -6.736)" fill="#568ac8"/>
          <path id="Path_27301" data-name="Path 27301" d="M6.522,19.3V14.076a.447.447,0,0,0-.447-.448H.776a.448.448,0,0,0-.448.448V19.3a.448.448,0,0,0,.448.448h5.3A.448.448,0,0,0,6.522,19.3Z" transform="translate(-0.328 -7.399)" fill="#d89028"/>
          <path id="Path_27302" data-name="Path 27302" d="M11.2,32.531A2.5,2.5,0,1,0,9.636,35.7,2.5,2.5,0,0,0,11.2,32.531ZM9.15,34.269a.987.987,0,1,1,.618-1.252A.986.986,0,0,1,9.15,34.269Z" transform="translate(-3.336 -16.017)" fill="#568ac8"/>
          <path id="Path_27303" data-name="Path 27303" d="M32.351,20.246c.706,0,.706-2.558,0-2.558a1.279,1.279,0,1,0,0,2.558Z" transform="translate(-15.727 -9.433)" fill="#568ac8"/>
          <path id="Path_27304" data-name="Path 27304" d="M16.557,30.866H11.208a7.108,7.108,0,0,1-.674-2.505.333.333,0,0,0,.238-.319v-.923a.335.335,0,0,0-.335-.335H3.6a.335.335,0,0,0-.335.335v.923a.335.335,0,0,0,.335.335h.037a11.192,11.192,0,0,0-.927,3.495H4.155A2.918,2.918,0,0,1,6.081,28.54a2.917,2.917,0,0,1,3.7,1.828,2.893,2.893,0,0,1,.1,1.5h6.7A2.865,2.865,0,0,1,16.557,30.866Z" transform="translate(-1.521 -13.988)" fill="#315f99"/>
          <path id="Path_27305" data-name="Path 27305" d="M32.924,30.968a2.5,2.5,0,1,0,3.169,1.564A2.5,2.5,0,0,0,32.924,30.968Zm1.12,3.3a.987.987,0,1,1,.617-1.252A.987.987,0,0,1,34.044,34.269Z" transform="translate(-15.804 -16.018)" fill="#568ac8"/>
          <path id="Path_27306" data-name="Path 27306" d="M21.5,3.024A2.185,2.185,0,0,0,19.62,1.166a2.218,2.218,0,0,0-.286-.018h0a2.182,2.182,0,0,0-2.178,2.183,2.147,2.147,0,0,0,.033.382,1.868,1.868,0,0,0,.455,1.032,1.733,1.733,0,0,0,1.055.441,5.008,5.008,0,0,0,.651.057,1.357,1.357,0,0,0,.629-.13.715.715,0,0,0,.075-.333c0-.24-.091-.534-.115-.959,0-.009,0-.018,0-.027a.508.508,0,0,1,.225-.408,1.49,1.49,0,0,1,.479-.217A4.934,4.934,0,0,1,21.5,3.024Z" transform="translate(-8.757 -1.148)" fill="#315f99"/>
        </g>
      </g>
    </g>
    <g id="Group_3772" data-name="Group 3772" transform="translate(226.627 163.924)">
      <path id="Rectangle_5884" data-name="Rectangle 5884" d="M8.272,0H28.11a8.271,8.271,0,0,1,8.271,8.271V28.11a8.272,8.272,0,0,1-8.272,8.272H8.272A8.272,8.272,0,0,1,0,28.11V8.272A8.272,8.272,0,0,1,8.272,0Z" fill="#ffd359"/>
      <path id="Path_27250" data-name="Path 27250" d="M312.12,195.528c-6.114,11.445-11.26,23.633-21.86,31.76a43.8,43.8,0,0,1-5.814,3.762,6.491,6.491,0,0,0,2.832.655H310.53a6.585,6.585,0,0,0,6.565-6.565V201.889A6.585,6.585,0,0,0,312.12,195.528Z" transform="translate(-280.476 -195.171)" fill="#ff75fe" opacity="0.56" style="mix-blend-mode: multiply;isolation: isolate"/>
      <ellipse id="Ellipse_909" data-name="Ellipse 909" cx="15.5" cy="15" rx="15.5" ry="15" transform="translate(2.817 3.154)" fill="#fff"/>
      <g id="Group_3815" data-name="Group 3815" transform="translate(7.143 10.318)">
        <g id="Group_3785" data-name="Group 3785" transform="translate(17.155 0.121)">
          <path id="Path_27307" data-name="Path 27307" d="M58.439,2.612l-.382-.076a1.127,1.127,0,0,0-.153-.407l.229-.305a.27.27,0,0,0-.025-.331l-.584-.56a.266.266,0,0,0-.331-.025l-.305.2a1.2,1.2,0,0,0-.382-.153L56.43.576a.248.248,0,0,0-.255-.2h-.814a.268.268,0,0,0-.255.2l-.076.382-.382.153L54.344.882a.27.27,0,0,0-.331.025l-.56.561a.266.266,0,0,0-.025.331l.229.305a2.545,2.545,0,0,0-.18.382l-.382.076a.248.248,0,0,0-.2.255v.814a.248.248,0,0,0,.2.255l.382.076.153.382-.229.305a.27.27,0,0,0,.025.331l.584.584a.266.266,0,0,0,.331.025l.305-.229a1.193,1.193,0,0,0,.382.153l.076.382a.241.241,0,0,0,.229.2h.382a.241.241,0,0,0-.2.229.255.255,0,1,0,.509.018.172.172,0,0,0,0-.018.223.223,0,0,0-.2-.229h.331a.248.248,0,0,0,.255-.2l.076-.382.382-.153.305.229a.269.269,0,0,0,.334-.024l.584-.584a.266.266,0,0,0,.025-.331l-.229-.305a1.193,1.193,0,0,0,.153-.382l.382-.051a.248.248,0,0,0,.2-.255V2.842A.178.178,0,0,0,58.5,2.62.181.181,0,0,0,58.439,2.612ZM55.769,4.166a.941.941,0,1,1,.941-.941.94.94,0,0,1-.941.941Z" transform="translate(-52.891 -0.372)" fill="#315f99"/>
        </g>
        <g id="Group_3797" data-name="Group 3797" transform="translate(19.116 6.489)">
          <g id="Group_3786" data-name="Group 3786" transform="translate(0.662 7.456)">
            <path id="Path_27308" data-name="Path 27308" d="M61.234,42.995a.255.255,0,1,0,.255.255h0A.274.274,0,0,0,61.234,42.995Z" transform="translate(-60.979 -42.995)" fill="#315f99"/>
          </g>
          <g id="Group_3787" data-name="Group 3787" transform="translate(0 7.532)">
            <circle id="Ellipse_910" data-name="Ellipse 910" cx="0.255" cy="0.255" r="0.255" fill="#315f99"/>
          </g>
          <g id="Group_3788" data-name="Group 3788" transform="translate(0.662 6.718)">
            <path id="Path_27309" data-name="Path 27309" d="M61.234,40.72a.255.255,0,1,0,.255.255h0A.255.255,0,0,0,61.234,40.72Z" transform="translate(-60.979 -40.72)" fill="#315f99"/>
          </g>
          <g id="Group_3789" data-name="Group 3789" transform="translate(0.662 0.764)">
            <path id="Path_27310" data-name="Path 27310" d="M61.234,22.361a.255.255,0,1,0,.255.255h0A.255.255,0,0,0,61.234,22.361Z" transform="translate(-60.979 -22.361)" fill="#315f99"/>
          </g>
          <g id="Group_3790" data-name="Group 3790" transform="translate(0.662 3.741)">
            <path id="Path_27311" data-name="Path 27311" d="M61.234,31.54a.255.255,0,1,0,.255.255h0A.255.255,0,0,0,61.234,31.54Z" transform="translate(-60.979 -31.54)" fill="#315f99"/>
          </g>
          <g id="Group_3791" data-name="Group 3791" transform="translate(0.662 2.239)">
            <path id="Path_27312" data-name="Path 27312" d="M61.234,26.911a.255.255,0,1,0,.255.255h0A.274.274,0,0,0,61.234,26.911Z" transform="translate(-60.979 -26.911)" fill="#315f99"/>
          </g>
          <g id="Group_3792" data-name="Group 3792" transform="translate(0.662 5.98)">
            <path id="Path_27313" data-name="Path 27313" d="M61.234,38.445a.255.255,0,1,0,.255.255h0A.255.255,0,0,0,61.234,38.445Z" transform="translate(-60.979 -38.445)" fill="#315f99"/>
          </g>
          <path id="Path_27314" data-name="Path 27314" d="M61.234,20.007a.255.255,0,1,0,.255.255h0A.274.274,0,0,0,61.234,20.007Z" transform="translate(-60.317 -20.007)" fill="#315f99"/>
          <g id="Group_3793" data-name="Group 3793" transform="translate(0.662 1.501)">
            <path id="Path_27315" data-name="Path 27315" d="M61.234,24.636a.255.255,0,1,0,.255.255h0A.255.255,0,0,0,61.234,24.636Z" transform="translate(-60.979 -24.636)" fill="#315f99"/>
          </g>
          <g id="Group_3794" data-name="Group 3794" transform="translate(0.662 3.003)">
            <path id="Path_27316" data-name="Path 27316" d="M61.234,29.265a.255.255,0,1,0,.255.255h0A.255.255,0,0,0,61.234,29.265Z" transform="translate(-60.979 -29.265)" fill="#315f99"/>
          </g>
          <g id="Group_3795" data-name="Group 3795" transform="translate(0.662 4.479)">
            <path id="Path_27317" data-name="Path 27317" d="M61.234,33.816a.255.255,0,1,0,.255.255h0A.255.255,0,0,0,61.234,33.816Z" transform="translate(-60.979 -33.816)" fill="#315f99"/>
          </g>
          <g id="Group_3796" data-name="Group 3796" transform="translate(0.662 5.242)">
            <path id="Path_27318" data-name="Path 27318" d="M61.234,36.169a.255.255,0,1,0,.255.255h0A.255.255,0,0,0,61.234,36.169Z" transform="translate(-60.979 -36.169)" fill="#315f99"/>
          </g>
        </g>
        <g id="Group_3811" data-name="Group 3811" transform="translate(5.66 5.751)">
          <g id="Group_3798" data-name="Group 3798" transform="translate(0 7.456)">
            <path id="Path_27319" data-name="Path 27319" d="M17.706,40.719a.255.255,0,1,0,.255.255h0A.272.272,0,0,0,17.706,40.719Z" transform="translate(-17.451 -40.719)" fill="#315f99"/>
          </g>
          <g id="Group_3799" data-name="Group 3799" transform="translate(0 5.98)">
            <path id="Path_27320" data-name="Path 27320" d="M17.706,36.169a.255.255,0,1,0,.255.255h0A.272.272,0,0,0,17.706,36.169Z" transform="translate(-17.451 -36.169)" fill="#315f99"/>
          </g>
          <g id="Group_3800" data-name="Group 3800" transform="translate(0 6.718)">
            <path id="Path_27321" data-name="Path 27321" d="M17.706,38.444a.255.255,0,1,0,.255.255h0A.273.273,0,0,0,17.706,38.444Z" transform="translate(-17.451 -38.444)" fill="#315f99"/>
          </g>
          <g id="Group_3801" data-name="Group 3801" transform="translate(0 8.194)">
            <path id="Path_27322" data-name="Path 27322" d="M17.706,42.994a.255.255,0,1,0,.255.255h0A.3.3,0,0,0,17.706,42.994Z" transform="translate(-17.451 -42.994)" fill="#315f99"/>
          </g>
          <g id="Group_3802" data-name="Group 3802">
            <path id="Path_27323" data-name="Path 27323" d="M17.706,17.731a.255.255,0,1,0,.255.255h0A.272.272,0,0,0,17.706,17.731Z" transform="translate(-17.451 -17.731)" fill="#315f99"/>
          </g>
          <g id="Group_3803" data-name="Group 3803" transform="translate(0.671 8.27)">
            <path id="Path_27324" data-name="Path 27324" d="M19.765,43.737a.255.255,0,0,0,.255-.255.24.24,0,0,0-.225-.255h-.03a.255.255,0,0,0,0,.509Z" transform="translate(-19.519 -43.228)" fill="#315f99"/>
          </g>
          <g id="Group_3804" data-name="Group 3804" transform="translate(0 0.738)">
            <path id="Path_27325" data-name="Path 27325" d="M17.706,20.006a.255.255,0,1,0,.255.255h0A.3.3,0,0,0,17.706,20.006Z" transform="translate(-17.451 -20.006)" fill="#315f99"/>
          </g>
          <g id="Group_3805" data-name="Group 3805" transform="translate(0 2.239)">
            <path id="Path_27326" data-name="Path 27326" d="M17.706,24.635a.255.255,0,1,0,.255.255h0A.272.272,0,0,0,17.706,24.635Z" transform="translate(-17.451 -24.635)" fill="#315f99"/>
          </g>
          <g id="Group_3806" data-name="Group 3806" transform="translate(0 5.217)">
            <path id="Path_27327" data-name="Path 27327" d="M17.706,33.815a.255.255,0,1,0,.255.255h0A.273.273,0,0,0,17.706,33.815Z" transform="translate(-17.451 -33.815)" fill="#315f99"/>
          </g>
          <g id="Group_3807" data-name="Group 3807" transform="translate(0 2.977)">
            <path id="Path_27328" data-name="Path 27328" d="M17.706,26.911a.255.255,0,1,0,.255.255h0A.3.3,0,0,0,17.706,26.911Z" transform="translate(-17.451 -26.911)" fill="#315f99"/>
          </g>
          <g id="Group_3808" data-name="Group 3808" transform="translate(0 1.501)">
            <path id="Path_27329" data-name="Path 27329" d="M17.706,22.36a.255.255,0,1,0,.255.255h0A.272.272,0,0,0,17.706,22.36Z" transform="translate(-17.451 -22.36)" fill="#315f99"/>
          </g>
          <g id="Group_3809" data-name="Group 3809" transform="translate(0 3.741)">
            <path id="Path_27330" data-name="Path 27330" d="M17.706,29.264a.255.255,0,1,0,.255.255h0A.273.273,0,0,0,17.706,29.264Z" transform="translate(-17.451 -29.264)" fill="#315f99"/>
          </g>
          <g id="Group_3810" data-name="Group 3810" transform="translate(0 4.479)">
            <path id="Path_27331" data-name="Path 27331" d="M17.706,31.54a.255.255,0,1,0,.255.255h0A.272.272,0,0,0,17.706,31.54Z" transform="translate(-17.451 -31.54)" fill="#315f99"/>
          </g>
        </g>
        <path id="Path_27332" data-name="Path 27332" d="M7.889,5.293V.255A.255.255,0,0,0,7.634,0H.255A.255.255,0,0,0,0,.255V5.293a.255.255,0,0,0,.255.255H7.634A.274.274,0,0,0,7.889,5.293ZM2.977,3.715a.252.252,0,0,1-.357.357l-1.2-1.121A.246.246,0,0,1,1.416,2.6l.009-.009,1.2-1.119a.252.252,0,1,1,.357.357l-.992.941ZM4.657,1.07,3.716,4.582a.25.25,0,0,1-.484-.127L4.173.941A.262.262,0,0,1,4.479.763.276.276,0,0,1,4.657,1.07ZM6.438,2.952l-1.2,1.12a.252.252,0,0,1-.357-.357h0l.992-.941-.992-.941a.252.252,0,0,1,.357-.357l1.2,1.118a.246.246,0,0,1,.009.348Z" fill="#d89028"/>
        <g id="Group_3814" data-name="Group 3814" transform="translate(6.745 0.123)">
          <g id="Group_3812" data-name="Group 3812" transform="translate(3.215 3.254)">
            <path id="Path_27333" data-name="Path 27333" d="M36.348,16.812h2v1.774h-2Z" transform="translate(-34.519 -14.736)" fill="#fcd088"/>
            <ellipse id="Ellipse_911" data-name="Ellipse 911" cx="0.682" cy="0.438" rx="0.682" ry="0.438" transform="translate(4.467 1.322) rotate(-74.991)" fill="#fcd088"/>
            <ellipse id="Ellipse_912" data-name="Ellipse 912" cx="0.438" cy="0.682" rx="0.438" ry="0.682" transform="matrix(0.966, -0.259, 0.259, 0.966, 0, 0.227)" fill="#fcd088"/>
          </g>
          <ellipse id="Ellipse_913" data-name="Ellipse 913" cx="2.232" cy="2.835" rx="2.232" ry="2.835" transform="translate(3.813 0.693)" fill="#fcd088"/>
          <path id="Path_27334" data-name="Path 27334" d="M43.468,2.346c-1.017-.62-.947.784-.947.784a2.569,2.569,0,0,0,.96,1.878l.03.771a.149.149,0,0,0,.292-.014C43.856,5.316,44.322,2.867,43.468,2.346Z" transform="translate(-35.474 -1.601)" fill="#333"/>
          <path id="Path_27335" data-name="Path 27335" d="M35.64,1.2a.667.667,0,0,1-.306.85,5.54,5.54,0,0,1-1.905.281,1.224,1.224,0,0,0-1,.791A3.992,3.992,0,0,0,32.4,4.5a.15.15,0,0,1-.3.026,9.174,9.174,0,0,1-.116-1.71c.076-.576,0-1.839,1.555-2.017.389-.044.7-.422.961-.424A1.032,1.032,0,0,1,35.64,1.2Z" transform="translate(-28.355 -0.379)" fill="#333"/>
          <path id="Path_27336" data-name="Path 27336" d="M34.773,23.794c.028-1.339-1.468-1.816-1.468-1.816l-2.058-.606h-1.6l-2.058.606s-1.5.478-1.468,1.816,0,3.06,0,3.06h8.657S34.745,25.132,34.773,23.794Z" transform="translate(-24.39 -14.563)" fill="#fcd088"/>
          <path id="Path_27337" data-name="Path 27337" d="M34.745,27.274H26.089s.028-1.721,0-3.059S27.557,22.4,27.557,22.4l1.366-.4a2.161,2.161,0,0,0,2.991,0l1.365.4s1.5.479,1.475,1.819S34.745,27.274,34.745,27.274Z" transform="translate(-24.372 -14.984)" fill="#315f99"/>
          <path id="Path_27338" data-name="Path 27338" d="M32.338,27.127H21.528a.733.733,0,0,0-.733.733.71.71,0,0,0,.006.091l.681,5.449a.733.733,0,0,0,.728.643h9.45a.733.733,0,0,0,.728-.643l.681-5.449a.733.733,0,0,0-.637-.819A.754.754,0,0,0,32.338,27.127Z" transform="translate(-20.795 -18.451)" fill="#568ac8"/>
          <g id="Group_3813" data-name="Group 3813" transform="translate(0.235 11.254)">
            <path id="Path_27339" data-name="Path 27339" d="M37.04,35.077c-.71,0-1.286.386-1.286.862s.576.862,1.286.862,1.286-.386,1.286-.862S37.75,35.077,37.04,35.077Z" transform="translate(-31.137 -35.077)" fill="#fff"/>
            <path id="Path_27340" data-name="Path 27340" d="M33.04,48.393H21.8a.3.3,0,0,0,0,.59H33.04a.3.3,0,0,0,0-.59Z" transform="translate(-21.518 -44.074)" fill="#315f99"/>
          </g>
        </g>
      </g>
    </g>
    <path id="Path_27251" data-name="Path 27251" d="M360.466,423.271H197.006a.6.6,0,0,0-.6.6h0a.6.6,0,0,0,.6.6h163.46a.6.6,0,0,0,.6-.6h0A.6.6,0,0,0,360.466,423.271Z" transform="translate(-35.685 -78.234)" fill="#8b77e8"/>
    <rect id="Rectangle_5885" data-name="Rectangle 5885" width="50.162" height="1.193" rx="0.415" transform="translate(237.499 349.857)" fill="#ccc2fe"/>
    <rect id="Rectangle_5886" data-name="Rectangle 5886" width="50.162" height="1.193" rx="0.415" transform="translate(291.482 349.857)" fill="#ccc2fe"/>
    <rect id="Rectangle_5887" data-name="Rectangle 5887" width="50.162" height="1.193" rx="0.415" transform="translate(182.086 349.857)" fill="#ccc2fe"/>
    <g id="Group_3773" data-name="Group 3773" transform="translate(73.642 272.081)">
      <path id="Path_27252" data-name="Path 27252" d="M108.787,388.647H89.862V334.975" transform="translate(-87.345 -332.097)" fill="none" stroke="#96fffa" stroke-width="2"/>
      <circle id="Ellipse_892" data-name="Ellipse 892" cx="2.083" cy="2.083" r="2.083" fill="#96fffa"/>
      <circle id="Ellipse_893" data-name="Ellipse 893" cx="2.083" cy="2.083" r="2.083" transform="translate(19.359 54.466)" fill="#96fffa"/>
    </g>
    <g id="Group_3774" data-name="Group 3774" transform="translate(344.918 273.915)">
      <path id="Path_27253" data-name="Path 27253" d="M450.581,390.958H431.656V337.286" transform="translate(-429.139 -334.409)" fill="none" stroke="#96fffa" stroke-width="2"/>
      <circle id="Ellipse_894" data-name="Ellipse 894" cx="2.083" cy="2.083" r="2.083" fill="#96fffa"/>
      <circle id="Ellipse_895" data-name="Ellipse 895" cx="2.083" cy="2.083" r="2.083" transform="translate(19.359 54.466)" fill="#96fffa"/>
    </g>
    <g id="Group_3775" data-name="Group 3775" transform="translate(27.42 234.82)">
      <circle id="Ellipse_896" data-name="Ellipse 896" cx="2.083" cy="2.083" r="2.083" transform="translate(20.041)" fill="#96fffa"/>
      <circle id="Ellipse_897" data-name="Ellipse 897" cx="2.083" cy="2.083" r="2.083" transform="translate(0 36.808)" fill="#96fffa"/>
      <path id="Path_27254" data-name="Path 27254" d="M51.343,288.349v36.213H32.162" transform="translate(-29.219 -285.217)" fill="none" stroke="#96fffa" stroke-width="2"/>
    </g>
    <g id="Group_3776" data-name="Group 3776" transform="translate(23.444 144.038)">
      <circle id="Ellipse_898" data-name="Ellipse 898" cx="2.083" cy="2.083" r="2.083" transform="translate(20.041)" fill="#96fffa"/>
      <circle id="Ellipse_899" data-name="Ellipse 899" cx="2.083" cy="2.083" r="2.083" transform="translate(0 36.808)" fill="#96fffa"/>
      <path id="Path_27255" data-name="Path 27255" d="M46.333,173.969v36.213H27.152" transform="translate(-24.209 -170.837)" fill="none" stroke="#96fffa" stroke-width="2"/>
    </g>
    <g id="Group_3777" data-name="Group 3777" transform="translate(188.016 44.078)">
      <circle id="Ellipse_900" data-name="Ellipse 900" cx="2.083" cy="2.083" r="2.083" transform="translate(36.808 20.041)" fill="#96fffa"/>
      <circle id="Ellipse_901" data-name="Ellipse 901" cx="2.083" cy="2.083" r="2.083" fill="#96fffa"/>
      <path id="Path_27256" data-name="Path 27256" d="M269.062,66.967H232.85V47.786" transform="translate(-231.219 -44.843)" fill="none" stroke="#96fffa" stroke-width="2"/>
    </g>
    <g id="Group_3778" data-name="Group 3778" transform="translate(310.731 50.445)">
      <circle id="Ellipse_902" data-name="Ellipse 902" cx="2.083" cy="2.083" r="2.083" transform="translate(20.041)" fill="#96fffa"/>
      <circle id="Ellipse_903" data-name="Ellipse 903" cx="2.083" cy="2.083" r="2.083" transform="translate(0 36.808)" fill="#96fffa"/>
      <path id="Path_27257" data-name="Path 27257" d="M408.3,56.046V92.259H389.12" transform="translate(-386.176 -52.915)" fill="none" stroke="#96fffa" stroke-width="2"/>
    </g>
  </g>
</svg>
