<svg xmlns="http://www.w3.org/2000/svg" width="50" height="38" viewBox="0 0 50 38">
  <g id="Group_3748" data-name="Group 3748" transform="translate(-95 -148)">
    <rect id="Rectangle_5839" data-name="Rectangle 5839" width="50" height="38" rx="19" transform="translate(95 148)" fill="#feaa25"/>
    <g id="Group_3747" data-name="Group 3747" transform="translate(106 153)">
      <path id="Path_27185" data-name="Path 27185" d="M26.723,14.275a.9.9,0,0,1,0-1.072l.484-.692a2.213,2.213,0,0,0,.369-1.856,2.309,2.309,0,0,0-1.154-1.511l-.75-.392a.91.91,0,0,1-.484-.969l.115-.865a2.309,2.309,0,0,0-.484-1.845,2.436,2.436,0,0,0-1.753-.807h-.854a.911.911,0,0,1-.865-.657l-.254-.8a2.308,2.308,0,0,0-2.307-1.672,2.593,2.593,0,0,0-.934.184l-.784.334a1.013,1.013,0,0,1-.369.069.954.954,0,0,1-.7-.3L15.5.773A2.392,2.392,0,0,0,11.958.8L11.4,1.43a.97.97,0,0,1-1.027.242l-.784-.311a2.407,2.407,0,0,0-.946-.208,2.307,2.307,0,0,0-2.307,1.7l-.219.807a.958.958,0,0,1-.865.68H4.413a2.374,2.374,0,0,0-1.719.876A2.305,2.305,0,0,0,2.3,7.138l.15.819a.9.9,0,0,1-.461.969l-.75.415a2.3,2.3,0,0,0-.8,3.344l.508.669a.924.924,0,0,1,0,1.084l-.484.68a2.305,2.305,0,0,0,.807,3.367l.75.4a.9.9,0,0,1,.484.957l-.138.911a2.309,2.309,0,0,0,2.215,2.687H5.44a.935.935,0,0,1,.865.669l.242.8a2.308,2.308,0,0,0,2.307,1.672,2.593,2.593,0,0,0,.934-.184l.784-.334a1.013,1.013,0,0,1,.369-.069.954.954,0,0,1,.7.3l.565.623a2.392,2.392,0,0,0,3.541-.023l.554-.634a.993.993,0,0,1,.715-.311.927.927,0,0,1,.358.069l.8.311a2.37,2.37,0,0,0,.888.173,2.307,2.307,0,0,0,2.307-1.7L21.6,24a.934.934,0,0,1,.854-.68h.854a2.312,2.312,0,0,0,2.18-2.721l-.15-.819a.9.9,0,0,1,.461-.969l.727-.473a2.2,2.2,0,0,0,.7-3.344ZM24.612,16.72a3.216,3.216,0,0,0-1.627,3.459l.1.807h-.842a3.231,3.231,0,0,0-2.953,2.306l-.219.807h-.092l-.8-.311a3.289,3.289,0,0,0-3.657.865l-.542.623h-.069l-.565-.611A3.275,3.275,0,0,0,10.942,23.6a3.119,3.119,0,0,0-1.257.254l-.877.357h0l-.231-.8A3.218,3.218,0,0,0,5.59,21.113L4.609,21.1l.15-.853a3.216,3.216,0,0,0-1.7-3.367L2.3,16.5l.484-.669a3.181,3.181,0,0,0,0-3.817L2.3,11.358l.75-.4A3.216,3.216,0,0,0,4.679,7.495l-.069-.773h.842A3.207,3.207,0,0,0,8.393,4.416l.2-.957h.092l.807.311A3.265,3.265,0,0,0,10.643,4,3.252,3.252,0,0,0,13.1,2.848l.577-.542h.069l.565.611a3.275,3.275,0,0,0,2.411,1.061,3.119,3.119,0,0,0,1.257-.254l.877-.265h0l.242.749a3.218,3.218,0,0,0,2.988,2.306h.888l-.15.853a3.24,3.24,0,0,0,1.7,3.379l.761.381-.484.657a3.206,3.206,0,0,0,0,3.817l.5.669Z" transform="translate(-0.031 0)" fill="#fff"/>
      <path id="Path_27186" data-name="Path 27186" d="M17.467,7.974l-6.29,8.335-2.647-3a1.09,1.09,0,0,0-1.685,0,1.5,1.5,0,0,0,0,1.924L10.406,19.3a1.171,1.171,0,0,0,.843.393h0a1.137,1.137,0,0,0,.855-.474l7.121-9.486a1.492,1.492,0,0,0-.131-1.911,1.088,1.088,0,0,0-1.673.149Z" transform="translate(0.78 0.239)" fill="#fff"/>
    </g>
  </g>
</svg>
